<svg id="Layer_1" data-name="Layer 1" xmlns="http://www.w3.org/2000/svg" viewBox="0 0 458.71 319.37"><defs><style>.cls-1{fill:#F2A365;}</style></defs><path class="cls-1" d="M298.43,419.48a1.28,1.28,0,0,1,1,.45,1.51,1.51,0,0,1,.41,1.07,1.53,1.53,0,0,1-.41,1.1,1.31,1.31,0,0,1-1,.44h-6a1.31,1.31,0,0,1-1-.44,1.51,1.51,0,0,1-.43-1.1V409.58a1.62,1.62,0,0,1,.4-1.07,1.22,1.22,0,0,1,1-.47h6a1.28,1.28,0,0,1,1,.45,1.54,1.54,0,0,1,.41,1.09,1.49,1.49,0,0,1-.41,1.09,1.3,1.3,0,0,1-1,.43h-4.59v2.59H297a1.28,1.28,0,0,1,1,.45,1.57,1.57,0,0,1,.42,1.09,1.51,1.51,0,0,1-.42,1.08,1.3,1.3,0,0,1-1,.44h-3.19v2.73Z" transform="translate(-228.88 -106.62)"/><path class="cls-1" d="M311.46,411.62a1.49,1.49,0,0,1,.77.81,1.41,1.41,0,0,1,0,1.14l-3,8a2.15,2.15,0,0,1-.45.6,1.14,1.14,0,0,1-.83.35,1.58,1.58,0,0,1-.79-.21,1.25,1.25,0,0,1-.54-.74l-3.07-8a1.41,1.41,0,0,1,0-1.14,1.49,1.49,0,0,1,.77-.81,1.25,1.25,0,0,1,1.07,0,1.49,1.49,0,0,1,.75.84l1.77,4.35,1.75-4.35a1.46,1.46,0,0,1,.77-.84A1.21,1.21,0,0,1,311.46,411.62Z" transform="translate(-228.88 -106.62)"/><path class="cls-1" d="M320.19,411.55a4.31,4.31,0,0,1,1.92.46,5.37,5.37,0,0,1,1.62,1.21,6,6,0,0,1,1.12,1.75,5.26,5.26,0,0,1,.42,2.08,1.16,1.16,0,0,1-.41.93,1.44,1.44,0,0,1-1,.32h-5.56a2.11,2.11,0,0,0,1.9,1.29,1.93,1.93,0,0,0,.57-.07,2.09,2.09,0,0,0,.4-.16l.36-.16a1.27,1.27,0,0,1,1.17.21,1.62,1.62,0,0,1,.48.62,1.57,1.57,0,0,1,.1.81,1.4,1.4,0,0,1-.36.79,3.28,3.28,0,0,1-1.26.7,6.2,6.2,0,0,1-1.46.21,3.91,3.91,0,0,1-1.92-.4,5.26,5.26,0,0,1-1.62-1.2,5.86,5.86,0,0,1-1.1-1.78,5.5,5.5,0,0,1-.41-2.11,5.31,5.31,0,0,1,.41-2.07,6,6,0,0,1,1.09-1.76,5.46,5.46,0,0,1,1.61-1.21A4.36,4.36,0,0,1,320.19,411.55Zm1.9,4.23a2.26,2.26,0,0,0-.83-1,2.06,2.06,0,0,0-1.07-.28,2,2,0,0,0-1.07.28,2.33,2.33,0,0,0-.83,1Z" transform="translate(-228.88 -106.62)"/><path class="cls-1" d="M330,422.56a1.24,1.24,0,0,1-.94-.39,1.67,1.67,0,0,1-.42-1.06v-4.2a5.45,5.45,0,0,1,.43-2.05,5.63,5.63,0,0,1,1.08-1.68,5.27,5.27,0,0,1,1.59-1.14,5.11,5.11,0,0,1,1.93-.46,1.26,1.26,0,0,1,1,.43,1.73,1.73,0,0,1,.42,1,1.45,1.45,0,0,1-.39,1,1.43,1.43,0,0,1-1,.45,2,2,0,0,0-.89.19,2.29,2.29,0,0,0-.73.53,2.59,2.59,0,0,0-.69,1.82v4.13a1.56,1.56,0,0,1-.41,1A1.26,1.26,0,0,1,330,422.56Z" transform="translate(-228.88 -106.62)"/><path class="cls-1" d="M340.05,411.53a1.38,1.38,0,0,1,.95.39,1.27,1.27,0,0,1,.43,1V417a2.64,2.64,0,0,0,.67,1.77,2.52,2.52,0,0,0,.74.54,2.11,2.11,0,0,0,.93.21,2,2,0,0,0,.86-.19,2.28,2.28,0,0,0,.76-.5,2.44,2.44,0,0,0,.52-.76,2.32,2.32,0,0,0,.2-1V413a1.52,1.52,0,0,1,.38-1,1.29,1.29,0,0,1,1-.43,1.39,1.39,0,0,1,1,.4,1.32,1.32,0,0,1,.41,1v11.67a1.4,1.4,0,0,1-1.38,1.4,1.3,1.3,0,0,1-.93-.41,1.4,1.4,0,0,1-.42-1.06v-2.61a3.5,3.5,0,0,1-1.1.46,5.19,5.19,0,0,1-1.24.15,4.44,4.44,0,0,1-1.94-.43,5.28,5.28,0,0,1-1.62-1.18,5.52,5.52,0,0,1-1.11-1.79,6.08,6.08,0,0,1-.41-2.25V413a1.48,1.48,0,0,1,.39-1A1.27,1.27,0,0,1,340.05,411.53Z" transform="translate(-228.88 -106.62)"/><path class="cls-1" d="M366.6,411.51a1.17,1.17,0,0,1,.94.47,1.52,1.52,0,0,1,.37,1,1.42,1.42,0,0,1-.41,1,1.2,1.2,0,0,1-.9.45H363a.58.58,0,0,0-.42.16.55.55,0,0,0-.18.45.66.66,0,0,0,.18.49.59.59,0,0,0,.42.17h2.36a2.63,2.63,0,0,1,1.21.29,3.44,3.44,0,0,1,1,.79,4,4,0,0,1,.63,1,3,3,0,0,1,.23,1.23,3.44,3.44,0,0,1-.24,1.4,3.28,3.28,0,0,1-.7,1.12,3.17,3.17,0,0,1-1,.71,3.27,3.27,0,0,1-1.32.26h-3.84a1.24,1.24,0,0,1-.94-.41,1.42,1.42,0,0,1-.4-1,1.6,1.6,0,0,1,.38-1,1.23,1.23,0,0,1,.92-.49h3.84q.57,0,.57-.54c0-.41-.19-.62-.57-.62h-2.3a2.53,2.53,0,0,1-1.18-.28,3.11,3.11,0,0,1-1-.78,4.12,4.12,0,0,1-.63-1.09,3.37,3.37,0,0,1-.23-1.27,3.68,3.68,0,0,1,.24-1.32,3.57,3.57,0,0,1,.65-1.11,3.39,3.39,0,0,1,1-.77,2.94,2.94,0,0,1,1.23-.3Z" transform="translate(-228.88 -106.62)"/><path class="cls-1" d="M373.51,408.13a1.22,1.22,0,0,1,.93.41,1.62,1.62,0,0,1,.43,1.06v2.61a3,3,0,0,1,1.13-.47,6,6,0,0,1,1.23-.14,4.76,4.76,0,0,1,1.94.41,5,5,0,0,1,1.61,1.13,5.61,5.61,0,0,1,1.09,1.71,5.36,5.36,0,0,1,.41,2.08v4.16a1.48,1.48,0,0,1-.39,1,1.32,1.32,0,0,1-1,.46,1.26,1.26,0,0,1-.92-.4,1.74,1.74,0,0,1-.45-1v-4.09a2.64,2.64,0,0,0-.18-1,2.71,2.71,0,0,0-.49-.82,2.42,2.42,0,0,0-.73-.55,2,2,0,0,0-.92-.21,2.14,2.14,0,0,0-1.6.7,2.89,2.89,0,0,0-.76,1.73v4.11a1.48,1.48,0,0,1-.39,1,1.34,1.34,0,0,1-1,.46,1.18,1.18,0,0,1-.89-.4,2,2,0,0,1-.47-1V409.51a1.55,1.55,0,0,1,.41-1A1.19,1.19,0,0,1,373.51,408.13Z" transform="translate(-228.88 -106.62)"/><path class="cls-1" d="M391,411.53a4.62,4.62,0,0,1,1.94.43,5.2,5.2,0,0,1,1.61,1.18,5.81,5.81,0,0,1,1.09,1.75,5.73,5.73,0,0,1,.41,2.16,5.52,5.52,0,0,1-.4,2.12,5.71,5.71,0,0,1-1.07,1.74,5.32,5.32,0,0,1-1.6,1.18,4.55,4.55,0,0,1-2,.43,4.86,4.86,0,0,1-2-.41,4.81,4.81,0,0,1-1.61-1.15,5.39,5.39,0,0,1-1.08-1.73,6.08,6.08,0,0,1,0-4.31,5.4,5.4,0,0,1,1.06-1.72A5.24,5.24,0,0,1,389,412,5.17,5.17,0,0,1,391,411.53Zm0,3a2.11,2.11,0,0,0-.9.19,2.45,2.45,0,0,0-.74.53,2.62,2.62,0,0,0-.52.81,2.75,2.75,0,0,0-.18,1,2.67,2.67,0,0,0,.18,1,2.55,2.55,0,0,0,.52.82,2.38,2.38,0,0,0,.74.56,2,2,0,0,0,.9.2,2,2,0,0,0,.9-.2,2.31,2.31,0,0,0,.75-.56,2.9,2.9,0,0,0,.5-.82,2.68,2.68,0,0,0-.5-2.75A2.26,2.26,0,0,0,391,414.51Z" transform="translate(-228.88 -106.62)"/><path class="cls-1" d="M403.35,422.54a3.27,3.27,0,0,1-1.45-.32,3.71,3.71,0,0,1-1.18-.85,3.94,3.94,0,0,1-.8-1.25,4,4,0,0,1-.29-1.51V413a1.23,1.23,0,0,1,.1-.57,1.35,1.35,0,0,1,.3-.47,1.25,1.25,0,0,1,.44-.32,1.22,1.22,0,0,1,.54-.12,1.28,1.28,0,0,1,.93.4,1.49,1.49,0,0,1,.43.94v5.63a1.07,1.07,0,0,0,.3.75.91.91,0,0,0,.68.3.92.92,0,0,0,.65-.29,1,1,0,0,0,.31-.73v-5.68a1.26,1.26,0,0,1,.42-1,1.31,1.31,0,0,1,.94-.4,1.28,1.28,0,0,1,1,.43,1.48,1.48,0,0,1,.41,1v5.57a1,1,0,0,0,.3.76,1,1,0,0,0,.66.26.92.92,0,0,0,.7-.3,1,1,0,0,0,.28-.72V413a1.43,1.43,0,0,1,.41-1,1.25,1.25,0,0,1,1-.45,1.35,1.35,0,0,1,1,.41,1.31,1.31,0,0,1,.42,1v5.69a4,4,0,0,1-.31,1.55,3.81,3.81,0,0,1-.81,1.24,3.65,3.65,0,0,1-1.19.83,3.32,3.32,0,0,1-1.41.31,3.46,3.46,0,0,1-2.34-.88,3.5,3.5,0,0,1-1.1.67A3.6,3.6,0,0,1,403.35,422.54Z" transform="translate(-228.88 -106.62)"/><path class="cls-1" d="M424.07,408.15a1.21,1.21,0,0,1,.93.44,1.6,1.6,0,0,1,0,2.07,1.21,1.21,0,0,1-.93.44,1.37,1.37,0,0,1-1-.42,1.54,1.54,0,0,1-.39-1.12,1.42,1.42,0,0,1,.43-1A1.29,1.29,0,0,1,424.07,408.15Zm0,3.47a1.18,1.18,0,0,1,.91.43,1.8,1.8,0,0,1,.4,1.05v8a1.57,1.57,0,0,1-.35,1,1.37,1.37,0,0,1-1,.45,1.24,1.24,0,0,1-.92-.37,1.67,1.67,0,0,1-.46-1V413a1.44,1.44,0,0,1,.44-1A1.38,1.38,0,0,1,424.07,411.62Z" transform="translate(-228.88 -106.62)"/><path class="cls-1" d="M436,411.51a1.16,1.16,0,0,1,.94.47,1.53,1.53,0,0,1,.38,1,1.46,1.46,0,0,1-.41,1,1.2,1.2,0,0,1-.91.45h-3.59a.6.6,0,0,0-.43.16.58.58,0,0,0-.17.45.69.69,0,0,0,.17.49.61.61,0,0,0,.43.17h2.36a2.59,2.59,0,0,1,1.2.29,3.17,3.17,0,0,1,1,.79,4,4,0,0,1,.64,1,3.17,3.17,0,0,1,.23,1.23,3.55,3.55,0,0,1-.94,2.52,3.17,3.17,0,0,1-1,.71,3.27,3.27,0,0,1-1.32.26h-3.84a1.24,1.24,0,0,1-.94-.41,1.38,1.38,0,0,1-.4-1,1.55,1.55,0,0,1,.38-1,1.22,1.22,0,0,1,.92-.49h3.84c.38,0,.56-.18.56-.54s-.18-.62-.56-.62h-2.3a2.53,2.53,0,0,1-1.18-.28,3,3,0,0,1-1-.78,4.45,4.45,0,0,1-.64-1.09,3.58,3.58,0,0,1-.23-1.27,3.68,3.68,0,0,1,.24-1.32,3.41,3.41,0,0,1,.66-1.11,3.48,3.48,0,0,1,1-.77,3,3,0,0,1,1.24-.3Z" transform="translate(-228.88 -106.62)"/><path class="cls-1" d="M452.34,422.54a3.27,3.27,0,0,1-1.45-.32,3.82,3.82,0,0,1-1.18-.85,4.1,4.1,0,0,1-.79-1.25,3.83,3.83,0,0,1-.29-1.51V413a1.22,1.22,0,0,1,.09-.57A1.54,1.54,0,0,1,449,412a1.13,1.13,0,0,1,.43-.32,1.26,1.26,0,0,1,.55-.12,1.24,1.24,0,0,1,.92.4,1.44,1.44,0,0,1,.43.94v5.63a1.12,1.12,0,0,0,.31.75.89.89,0,0,0,.67.3.91.91,0,0,0,.65-.29,1,1,0,0,0,.31-.73v-5.68a1.29,1.29,0,0,1,.42-1,1.33,1.33,0,0,1,.94-.4,1.27,1.27,0,0,1,1,.43,1.44,1.44,0,0,1,.41,1v5.57a1,1,0,0,0,.3.76,1,1,0,0,0,.66.26.91.91,0,0,0,.7-.3,1,1,0,0,0,.28-.72V413a1.48,1.48,0,0,1,.41-1,1.25,1.25,0,0,1,.95-.45,1.35,1.35,0,0,1,1,.41,1.31,1.31,0,0,1,.42,1v5.69a3.92,3.92,0,0,1-1.12,2.79,3.65,3.65,0,0,1-1.19.83,3.29,3.29,0,0,1-1.41.31,3.47,3.47,0,0,1-2.34-.88,3.46,3.46,0,0,1-1.09.67A3.7,3.7,0,0,1,452.34,422.54Z" transform="translate(-228.88 -106.62)"/><path class="cls-1" d="M469.41,411.53a4.62,4.62,0,0,1,1.94.43,5.2,5.2,0,0,1,1.61,1.18,5.81,5.81,0,0,1,1.09,1.75,5.86,5.86,0,0,1,0,4.28,5.71,5.71,0,0,1-1.07,1.74,5.2,5.2,0,0,1-1.6,1.18,4.55,4.55,0,0,1-2,.43,4.86,4.86,0,0,1-2-.41,4.77,4.77,0,0,1-1.6-1.15,5.41,5.41,0,0,1-1.09-1.73,6.08,6.08,0,0,1,0-4.31,5.58,5.58,0,0,1,1.06-1.72,5.2,5.2,0,0,1,3.61-1.67Zm0,3a2.11,2.11,0,0,0-.9.19,2.45,2.45,0,0,0-.74.53,2.62,2.62,0,0,0-.52.81,2.75,2.75,0,0,0-.18,1,2.67,2.67,0,0,0,.18,1,2.55,2.55,0,0,0,.52.82,2.38,2.38,0,0,0,.74.56,2,2,0,0,0,.9.2,2,2,0,0,0,.91-.2,2.38,2.38,0,0,0,.74-.56,2.9,2.9,0,0,0,.5-.82,2.67,2.67,0,0,0,.19-1,2.74,2.74,0,0,0-.69-1.77A2.25,2.25,0,0,0,469.41,414.51Z" transform="translate(-228.88 -106.62)"/><path class="cls-1" d="M479.31,422.56a1.28,1.28,0,0,1-.95-.39,1.66,1.66,0,0,1-.41-1.06v-4.2a5.26,5.26,0,0,1,.43-2.05,5.63,5.63,0,0,1,1.08-1.68,5.11,5.11,0,0,1,3.52-1.6,1.23,1.23,0,0,1,1,.43,1.68,1.68,0,0,1,.43,1,1.42,1.42,0,0,1-.4,1,1.39,1.39,0,0,1-1,.45,2.11,2.11,0,0,0-.9.19,2.4,2.4,0,0,0-.73.53,2.76,2.76,0,0,0-.5.81,2.79,2.79,0,0,0-.19,1v4.13a1.5,1.5,0,0,1-.4,1A1.27,1.27,0,0,1,479.31,422.56Z" transform="translate(-228.88 -106.62)"/><path class="cls-1" d="M489,408a1.24,1.24,0,0,1,1,.44,1.79,1.79,0,0,1,.44,1.1v1.82H494a1.22,1.22,0,0,1,1,.45,1.63,1.63,0,0,1,.38,1.07A1.53,1.53,0,0,1,495,414a1.25,1.25,0,0,1-.94.47h-3.59v2.49a2.72,2.72,0,0,0,.18,1,2.57,2.57,0,0,0,.49.83,2.14,2.14,0,0,0,1.67.77,2.38,2.38,0,0,0,.93-.16,1.82,1.82,0,0,0,.67-.47,1.4,1.4,0,0,1,1-.42,1.36,1.36,0,0,1,1,.44,1.38,1.38,0,0,1,.31.46,1.75,1.75,0,0,1,.12.55,1.81,1.81,0,0,1-.08.56,1.06,1.06,0,0,1-.27.47,5.14,5.14,0,0,1-1.61,1.18,4.27,4.27,0,0,1-1.88.41,5.19,5.19,0,0,1-2-.4,5,5,0,0,1-1.69-1.13,5.28,5.28,0,0,1-1.16-1.77,6.1,6.1,0,0,1-.45-2.31v-7.46A1.42,1.42,0,0,1,489,408Z" transform="translate(-228.88 -106.62)"/><path class="cls-1" d="M501.46,408.13a1.22,1.22,0,0,1,.93.41,1.62,1.62,0,0,1,.43,1.06v2.61a3.1,3.1,0,0,1,1.13-.47,6,6,0,0,1,1.23-.14,4.76,4.76,0,0,1,1.94.41,4.94,4.94,0,0,1,1.61,1.13,5.83,5.83,0,0,1,1.1,1.71,5.35,5.35,0,0,1,.4,2.08v4.16a1.47,1.47,0,0,1-.38,1,1.34,1.34,0,0,1-1,.46,1.23,1.23,0,0,1-.92-.4,1.75,1.75,0,0,1-.46-1v-4.09a2.64,2.64,0,0,0-.18-1,2.71,2.71,0,0,0-.49-.82,2.31,2.31,0,0,0-.73-.55,2,2,0,0,0-.92-.21,2.14,2.14,0,0,0-1.6.7,2.89,2.89,0,0,0-.76,1.73v4.11a1.51,1.51,0,0,1-.38,1,1.36,1.36,0,0,1-1,.46,1.16,1.16,0,0,1-.88-.4,1.83,1.83,0,0,1-.47-1V409.51a1.54,1.54,0,0,1,.4-1A1.2,1.2,0,0,1,501.46,408.13Z" transform="translate(-228.88 -106.62)"/><path class="cls-1" d="M521.78,411.53a1.41,1.41,0,0,1,1,.39,1.3,1.3,0,0,1,.42,1V417a2.64,2.64,0,0,0,.67,1.77,2.66,2.66,0,0,0,.74.54,2.13,2.13,0,0,0,1.8,0,2.35,2.35,0,0,0,.75-.5,2.28,2.28,0,0,0,.52-.76,2.17,2.17,0,0,0,.2-1V413a1.48,1.48,0,0,1,.39-1,1.26,1.26,0,0,1,1-.43,1.38,1.38,0,0,1,1,.4,1.29,1.29,0,0,1,.42,1v11.67a1.32,1.32,0,0,1-.42,1,1.35,1.35,0,0,1-1,.41,1.32,1.32,0,0,1-.94-.41,1.4,1.4,0,0,1-.42-1.06v-2.61a3.45,3.45,0,0,1-1.09.46,5.34,5.34,0,0,1-1.25.15,4.47,4.47,0,0,1-1.94-.43,5.36,5.36,0,0,1-2.73-3,6.08,6.08,0,0,1-.4-2.25V413a1.52,1.52,0,0,1,.38-1A1.27,1.27,0,0,1,521.78,411.53Z" transform="translate(-228.88 -106.62)"/><path class="cls-1" d="M539.31,411.53a4.62,4.62,0,0,1,1.94.43,5.2,5.2,0,0,1,1.61,1.18,5.81,5.81,0,0,1,1.09,1.75,5.73,5.73,0,0,1,.41,2.16,5.52,5.52,0,0,1-.4,2.12,5.71,5.71,0,0,1-1.07,1.74,5.2,5.2,0,0,1-1.6,1.18,4.55,4.55,0,0,1-2,.43,4.86,4.86,0,0,1-2-.41,4.81,4.81,0,0,1-1.61-1.15,5.57,5.57,0,0,1-1.08-1.73,6.08,6.08,0,0,1,0-4.31,5.4,5.4,0,0,1,1.06-1.72,5.24,5.24,0,0,1,1.61-1.18A5.17,5.17,0,0,1,539.31,411.53Zm0,3a2.11,2.11,0,0,0-.9.19,2.45,2.45,0,0,0-.74.53,2.62,2.62,0,0,0-.52.81,2.75,2.75,0,0,0-.18,1,2.67,2.67,0,0,0,.18,1,2.55,2.55,0,0,0,.52.82,2.38,2.38,0,0,0,.74.56,2,2,0,0,0,.9.2,2,2,0,0,0,.9-.2,2.31,2.31,0,0,0,.75-.56,2.9,2.9,0,0,0,.5-.82,2.68,2.68,0,0,0-.5-2.75A2.26,2.26,0,0,0,539.31,414.51Z" transform="translate(-228.88 -106.62)"/><path class="cls-1" d="M549.27,411.53a1.28,1.28,0,0,1,1,.45,1.48,1.48,0,0,1,.41,1.07v4a2.65,2.65,0,0,0,.7,1.79,2.27,2.27,0,0,0,.74.55,2.13,2.13,0,0,0,.91.2,2.19,2.19,0,0,0,.87-.18,2.36,2.36,0,0,0,.74-.5,2.16,2.16,0,0,0,.51-.77,2.45,2.45,0,0,0,.19-1V413a1.48,1.48,0,0,1,.4-1,1.34,1.34,0,0,1,1-.48,1.26,1.26,0,0,1,1,.45,1.53,1.53,0,0,1,.43,1v4.09a5.57,5.57,0,0,1-.4,2.13,5.48,5.48,0,0,1-1.08,1.75,5.2,5.2,0,0,1-1.61,1.18,4.58,4.58,0,0,1-2,.43,4.14,4.14,0,0,1-1.93-.37,5.29,5.29,0,0,1-1.62-1.16,5.83,5.83,0,0,1-1.11-1.73,5.25,5.25,0,0,1-.42-2.07V413a1.5,1.5,0,0,1,.39-1A1.3,1.3,0,0,1,549.27,411.53Z" transform="translate(-228.88 -106.62)"/><path class="cls-1" d="M563,422.56a1.24,1.24,0,0,1-.94-.39,1.67,1.67,0,0,1-.42-1.06v-4.2a5.59,5.59,0,0,1,1.52-3.73,5.06,5.06,0,0,1,3.51-1.6,1.26,1.26,0,0,1,1,.43,1.67,1.67,0,0,1,.42,1,1.45,1.45,0,0,1-.39,1,1.43,1.43,0,0,1-1,.45,2,2,0,0,0-.89.19,2.4,2.4,0,0,0-.73.53,2.59,2.59,0,0,0-.69,1.82v4.13a1.56,1.56,0,0,1-.41,1A1.26,1.26,0,0,1,563,422.56Z" transform="translate(-228.88 -106.62)"/><path class="cls-1" d="M579.86,408a1.24,1.24,0,0,1,1,.44,1.73,1.73,0,0,1,.44,1.1v1.82h3.59a1.21,1.21,0,0,1,1,.45,1.58,1.58,0,0,1,.38,1.07,1.53,1.53,0,0,1-.42,1.05,1.25,1.25,0,0,1-.94.47h-3.59v2.49a2.72,2.72,0,0,0,.18,1,2.76,2.76,0,0,0,.49.83,2.41,2.41,0,0,0,.74.57,2.25,2.25,0,0,0,.93.2,2.38,2.38,0,0,0,.93-.16,1.85,1.85,0,0,0,.68-.47,1.36,1.36,0,0,1,1-.42,1.34,1.34,0,0,1,1,.44,1.38,1.38,0,0,1,.31.46,1.75,1.75,0,0,1,.12.55,1.79,1.79,0,0,1-.07.56,1.18,1.18,0,0,1-.28.47,5.1,5.1,0,0,1-1.6,1.18,4.3,4.3,0,0,1-1.88.41,5.2,5.2,0,0,1-2-.4,5.07,5.07,0,0,1-1.69-1.13,5.44,5.44,0,0,1-1.16-1.77,6.51,6.51,0,0,1-.45-2.31v-7.46a1.37,1.37,0,0,1,.43-1A1.39,1.39,0,0,1,579.86,408Z" transform="translate(-228.88 -106.62)"/><path class="cls-1" d="M592.29,408.15a1.18,1.18,0,0,1,.92.44,1.57,1.57,0,0,1,0,2.07,1.18,1.18,0,0,1-.92.44,1.41,1.41,0,0,1-1-.42,1.58,1.58,0,0,1-.38-1.12,1.38,1.38,0,0,1,.43-1A1.29,1.29,0,0,1,592.29,408.15Zm0,3.47a1.15,1.15,0,0,1,.9.43,1.75,1.75,0,0,1,.41,1.05v8a1.57,1.57,0,0,1-.35,1,1.37,1.37,0,0,1-1,.45,1.24,1.24,0,0,1-.92-.37,1.57,1.57,0,0,1-.46-1V413a1.44,1.44,0,0,1,.44-1A1.38,1.38,0,0,1,592.29,411.62Z" transform="translate(-228.88 -106.62)"/><path class="cls-1" d="M601.16,411.55a3.71,3.71,0,0,1,1.23.22,2.17,2.17,0,0,0,3.43-.22,3.45,3.45,0,0,1,1.41.31,3.81,3.81,0,0,1,1.19.83,4.09,4.09,0,0,1,1.12,2.79v5.7a1.28,1.28,0,0,1-.42.95,1.31,1.31,0,0,1-1,.41,1.27,1.27,0,0,1-.95-.44,1.49,1.49,0,0,1-.41-1v-5.52a1,1,0,0,0-.28-.73,1,1,0,0,0-1.66.73v5.52a1.47,1.47,0,0,1-.41,1,1.27,1.27,0,0,1-1,.43,1.31,1.31,0,0,1-.94-.4,1.26,1.26,0,0,1-.42-1v-5.63a1.07,1.07,0,0,0-.31-.74.91.91,0,0,0-.65-.28.94.94,0,0,0-.68.29,1.1,1.1,0,0,0-.3.75v5.63a1.44,1.44,0,0,1-.43.94,1.21,1.21,0,0,1-.93.4,1.41,1.41,0,0,1-.54-.11,1.55,1.55,0,0,1-.44-.32,1.39,1.39,0,0,1-.3-.48,1.09,1.09,0,0,1-.09-.56v-5.59a3.87,3.87,0,0,1,.29-1.51,4,4,0,0,1,.79-1.25,3.87,3.87,0,0,1,1.18-.85A3.41,3.41,0,0,1,601.16,411.55Z" transform="translate(-228.88 -106.62)"/><path class="cls-1" d="M618.22,411.55a4.31,4.31,0,0,1,1.92.46,5.37,5.37,0,0,1,1.62,1.21,6,6,0,0,1,1.12,1.75,5.26,5.26,0,0,1,.42,2.08,1.16,1.16,0,0,1-.41.93,1.44,1.44,0,0,1-1,.32h-5.56a2.11,2.11,0,0,0,1.9,1.29,1.89,1.89,0,0,0,.57-.07,2.19,2.19,0,0,0,.41-.16l.35-.16a1.27,1.27,0,0,1,1.17.21,1.53,1.53,0,0,1,.48.62,1.57,1.57,0,0,1,.1.81,1.4,1.4,0,0,1-.36.79,3.28,3.28,0,0,1-1.26.7,6.12,6.12,0,0,1-1.46.21,3.91,3.91,0,0,1-1.92-.4,5.26,5.26,0,0,1-1.62-1.2,5.86,5.86,0,0,1-1.1-1.78,5.5,5.5,0,0,1-.41-2.11,5.31,5.31,0,0,1,.41-2.07,6.2,6.2,0,0,1,1.09-1.76,5.46,5.46,0,0,1,1.61-1.21A4.36,4.36,0,0,1,618.22,411.55Zm1.9,4.23a2.26,2.26,0,0,0-.83-1,2.06,2.06,0,0,0-1.07-.28,2,2,0,0,0-1.07.28,2.4,2.4,0,0,0-.83,1Z" transform="translate(-228.88 -106.62)"/><path class="cls-1" d="M252.83,341.12a2.1,2.1,0,0,1,1.55.64,2.12,2.12,0,0,1,.64,1.55v30.38a9.18,9.18,0,0,0,2.64,6.25,8.74,8.74,0,0,0,2.72,1.83,8.3,8.3,0,0,0,3.33.68,8.19,8.19,0,0,0,5.79-2.33,9.64,9.64,0,0,0,2.82-6.43V343.31a2.19,2.19,0,0,1,2.19-2.19,2.17,2.17,0,0,1,2.19,2.19v30.38a12.63,12.63,0,0,1-1,5.05,13.44,13.44,0,0,1-2.79,4.13,13.21,13.21,0,0,1-4.13,2.79,12.66,12.66,0,0,1-5.05,1,12.44,12.44,0,0,1-6.22-1.59,13.73,13.73,0,0,1-4.66-4.2,13,13,0,0,1-4.63,4.28,12.66,12.66,0,0,1-6.25,1.59,12.9,12.9,0,0,1-5.09-1,13,13,0,0,1-4.17-2.79,13.38,13.38,0,0,1-2.79-4.17,12.84,12.84,0,0,1-1-5.08V343.31a2.17,2.17,0,0,1,2.19-2.19,2.19,2.19,0,0,1,2.19,2.19v30.38a8.68,8.68,0,0,0,2.54,6.21,8.48,8.48,0,0,0,2.76,1.87,8.38,8.38,0,0,0,3.39.68,8.5,8.5,0,0,0,3.35-.68,8.4,8.4,0,0,0,2.79-1.87,8.56,8.56,0,0,0,1.87-2.79,8.66,8.66,0,0,0,.68-3.42V343.31a2.17,2.17,0,0,1,2.19-2.19Z" transform="translate(-228.88 -106.62)"/><path class="cls-1" d="M300,352.56a15.59,15.59,0,0,1,6.46,1.38,17.81,17.81,0,0,1,9.12,9.15,16.7,16.7,0,0,1,0,13.18,17.9,17.9,0,0,1-3.64,5.4,16.89,16.89,0,0,1-5.4,3.67,16.68,16.68,0,0,1-6.71,1.34,17.07,17.07,0,0,1-6.61-1.27,16.78,16.78,0,0,1-5.4-3.53,16.39,16.39,0,0,1-3.67-5.37,17.06,17.06,0,0,1,3.56-18.75,17.71,17.71,0,0,1,5.44-3.68A18.93,18.93,0,0,1,300,352.56Zm-12.79,17.17a12.27,12.27,0,0,0,1,4.91,12.76,12.76,0,0,0,6.75,6.75,12.27,12.27,0,0,0,4.91,1,12.49,12.49,0,0,0,4.94-1,12.68,12.68,0,0,0,6.78-6.75,12.27,12.27,0,0,0,1-4.91,12.49,12.49,0,0,0-1-4.94,12.58,12.58,0,0,0-6.78-6.79,12.48,12.48,0,0,0-4.94-1,12.27,12.27,0,0,0-4.91,1,12.65,12.65,0,0,0-6.75,6.79A12.49,12.49,0,0,0,287.18,369.73Z" transform="translate(-228.88 -106.62)"/><path class="cls-1" d="M322.46,369.45a16.4,16.4,0,0,1,1.31-6.54,17.37,17.37,0,0,1,3.6-5.4,17.15,17.15,0,0,1,5.33-3.67,16.74,16.74,0,0,1,6.5-1.42,2.54,2.54,0,0,1,1.8.64,2,2,0,0,1,.67,1.55,2.06,2.06,0,0,1-.67,1.56,2.53,2.53,0,0,1-1.8.63,12.48,12.48,0,0,0-4.8,1.1,13.24,13.24,0,0,0-4,2.72,12.27,12.27,0,0,0-2.65,4,12.58,12.58,0,0,0-1,4.84v15.12a2.08,2.08,0,0,1-.64,1.55,2.2,2.2,0,0,1-3.1,0,2.08,2.08,0,0,1-.64-1.55Z" transform="translate(-228.88 -106.62)"/><path class="cls-1" d="M346.15,343.24a2.19,2.19,0,0,1,2.19-2.19,2.17,2.17,0,0,1,2.19,2.19v9h15.61a2.52,2.52,0,0,1,1.8.64,2,2,0,0,1,.67,1.55,2.06,2.06,0,0,1-.67,1.56,2.52,2.52,0,0,1-1.8.63H350.53v13.07a12.27,12.27,0,0,0,1,4.91,12.76,12.76,0,0,0,6.75,6.75,12.23,12.23,0,0,0,4.9,1,12.39,12.39,0,0,0,8.84-3.61,2.2,2.2,0,0,1,1.44-.74,2.27,2.27,0,0,1,1.66.46,2.57,2.57,0,0,1,.71,1.41,2.28,2.28,0,0,1-.35,1.63,16.66,16.66,0,0,1-5.51,3.85,16.86,16.86,0,0,1-6.79,1.38,16.53,16.53,0,0,1-6.64-1.35,17,17,0,0,1-5.4-3.64,17.3,17.3,0,0,1-3.64-5.4,16.62,16.62,0,0,1-1.34-6.64Z" transform="translate(-228.88 -106.62)"/><path class="cls-1" d="M380.72,343.31a2.19,2.19,0,1,1,4.38,0v14.84a17,17,0,0,1,5.58-4.14,17.22,17.22,0,0,1,13.71-.17,17.11,17.11,0,0,1,5.4,3.63,17.47,17.47,0,0,1,3.64,5.41,16.62,16.62,0,0,1,1.34,6.64v15.12a2.08,2.08,0,0,1-.64,1.55,2.2,2.2,0,0,1-3.1,0,2.08,2.08,0,0,1-.64-1.55V369.52a12.27,12.27,0,0,0-1-4.91,12.76,12.76,0,0,0-6.75-6.75,12.7,12.7,0,0,0-9.71,0,12.74,12.74,0,0,0-3.95,2.58,13,13,0,0,0-2.76,3.85A11.69,11.69,0,0,0,385.1,369v15.61a2.08,2.08,0,0,1-.64,1.55,2.2,2.2,0,0,1-3.1,0,2.08,2.08,0,0,1-.64-1.55V343.31Z" transform="translate(-228.88 -106.62)"/><path class="cls-1" d="M452.56,352.56a15.56,15.56,0,0,1,6.46,1.38,17.81,17.81,0,0,1,9.12,9.15,16.34,16.34,0,0,1,1.37,6.64v14.91a2.11,2.11,0,0,1-.63,1.55,2.14,2.14,0,0,1-1.56.64,2.19,2.19,0,0,1-2.19-2.19v-4.31a21.89,21.89,0,0,1-5.61,4.48,14.09,14.09,0,0,1-7.1,1.87,17,17,0,0,1-12-4.8,16.54,16.54,0,0,1-3.67-5.37,17.06,17.06,0,0,1,3.56-18.75,17.71,17.71,0,0,1,5.44-3.68A18.93,18.93,0,0,1,452.56,352.56Zm-12.79,17.17a12.27,12.27,0,0,0,1,4.91,12.76,12.76,0,0,0,6.75,6.75,12.27,12.27,0,0,0,4.91,1,12.1,12.1,0,0,0,4.8-1,12.54,12.54,0,0,0,4-2.65,12.72,12.72,0,0,0,2.76-4,14,14,0,0,0,1.16-5,12.32,12.32,0,0,0-1-4.94,12.48,12.48,0,0,0-2.72-4.07,12.65,12.65,0,0,0-4.06-2.72,12.48,12.48,0,0,0-4.94-1,12.27,12.27,0,0,0-4.91,1,13,13,0,0,0-4,2.72,12.8,12.8,0,0,0-2.72,4.07A12.49,12.49,0,0,0,439.77,369.73Z" transform="translate(-228.88 -106.62)"/><path class="cls-1" d="M515.85,341.12a2.17,2.17,0,0,1,2.19,2.19v30.38a9.43,9.43,0,0,0,.78,3.49,9,9,0,0,0,1.87,2.76,8.74,8.74,0,0,0,2.72,1.83,8.39,8.39,0,0,0,9.11-1.65,9.64,9.64,0,0,0,2.83-6.43V343.31a2.19,2.19,0,1,1,4.38,0v30.38a12.46,12.46,0,0,1-1,5.05,13.11,13.11,0,0,1-6.92,6.92,12.63,12.63,0,0,1-5,1,12.49,12.49,0,0,1-6.22-1.59,13.91,13.91,0,0,1-4.66-4.2,13,13,0,0,1-4.63,4.28,12.63,12.63,0,0,1-6.25,1.59,12.85,12.85,0,0,1-5.08-1,12.9,12.9,0,0,1-7-7,12.84,12.84,0,0,1-1-5.08V343.31a2.11,2.11,0,0,1,.63-1.55,2.21,2.21,0,0,1,3.11,0,2.12,2.12,0,0,1,.64,1.55v30.38a8.66,8.66,0,0,0,.67,3.42,8.78,8.78,0,0,0,4.62,4.66,8.73,8.73,0,0,0,9.54-1.87,8.68,8.68,0,0,0,2.54-6.21V343.31a2.12,2.12,0,0,1,.64-1.55A2.08,2.08,0,0,1,515.85,341.12Z" transform="translate(-228.88 -106.62)"/><path class="cls-1" d="M563,352.56a15.59,15.59,0,0,1,6.46,1.38,18,18,0,0,1,5.4,3.71,17.69,17.69,0,0,1,3.71,5.44,16.19,16.19,0,0,1,1.38,6.64v14.91a2.11,2.11,0,0,1-.63,1.55,2.16,2.16,0,0,1-1.56.64,2.12,2.12,0,0,1-1.55-.64,2.08,2.08,0,0,1-.64-1.55v-4.31a21.89,21.89,0,0,1-5.61,4.48,14.09,14.09,0,0,1-7.1,1.87,17.07,17.07,0,0,1-6.61-1.27,16.78,16.78,0,0,1-5.4-3.53,16.57,16.57,0,0,1-3.68-5.37,17,17,0,0,1-1.34-6.78,16.83,16.83,0,0,1,4.91-12,17.71,17.71,0,0,1,5.44-3.68A18.89,18.89,0,0,1,563,352.56Zm-12.79,17.17a12.27,12.27,0,0,0,1,4.91,12.76,12.76,0,0,0,6.75,6.75,12.58,12.58,0,0,0,9.71,0,12.54,12.54,0,0,0,4-2.65,13.06,13.06,0,0,0,2.76-4,14,14,0,0,0,1.16-5,12.49,12.49,0,0,0-1-4.94A12.58,12.58,0,0,0,567.8,358a12.48,12.48,0,0,0-4.94-1,12.23,12.23,0,0,0-4.91,1,12.65,12.65,0,0,0-6.75,6.79A12.49,12.49,0,0,0,550.21,369.73Z" transform="translate(-228.88 -106.62)"/><path class="cls-1" d="M586.2,343.24a2.11,2.11,0,0,1,.63-1.55,2.21,2.21,0,0,1,3.11,0,2.12,2.12,0,0,1,.64,1.55v9h15.61a2.54,2.54,0,0,1,1.8.64,2.07,2.07,0,0,1,.67,1.55A2.09,2.09,0,0,1,608,356a2.53,2.53,0,0,1-1.8.63H590.58v13.07a12.27,12.27,0,0,0,1,4.91,12.76,12.76,0,0,0,6.75,6.75,12.52,12.52,0,0,0,13.74-2.62,2.25,2.25,0,0,1,1.45-.74,2.27,2.27,0,0,1,1.66.46,2.56,2.56,0,0,1,.7,1.41,2.23,2.23,0,0,1-.35,1.63,16.46,16.46,0,0,1-5.51,3.85,16.85,16.85,0,0,1-6.78,1.38,16.46,16.46,0,0,1-6.64-1.35,16.95,16.95,0,0,1-9-9,16.45,16.45,0,0,1-1.34-6.64Z" transform="translate(-228.88 -106.62)"/><path class="cls-1" d="M643.41,360.48a14.48,14.48,0,0,0-4-2.51,12.87,12.87,0,0,0-9.78,0,13,13,0,0,0-4,2.72,12.8,12.8,0,0,0-2.72,4.07,12.48,12.48,0,0,0-1,4.94,12.27,12.27,0,0,0,1,4.91,12.76,12.76,0,0,0,6.75,6.75,12.75,12.75,0,0,0,9.78,0,13.06,13.06,0,0,0,4-2.65,2.23,2.23,0,0,1,3.11,0,2.09,2.09,0,0,1,.6,1.59,2.49,2.49,0,0,1-.81,1.73,15.53,15.53,0,0,1-1.73,1.45,14.84,14.84,0,0,1-2.62,1.52,18.69,18.69,0,0,1-3.39,1.17,17.35,17.35,0,0,1-4.06.45,17.09,17.09,0,0,1-12-4.8,16.54,16.54,0,0,1-3.67-5.37,17,17,0,0,1,3.57-18.75,17.59,17.59,0,0,1,5.44-3.68,18.83,18.83,0,0,1,6.81-1.52,13.61,13.61,0,0,1,3.92.54,17.89,17.89,0,0,1,3.25,1.27A16.69,16.69,0,0,1,644.4,356c.75.56,1.37,1.06,1.84,1.48a2.91,2.91,0,0,1,.74,1.31,1.59,1.59,0,0,1-.46,1.73,2.23,2.23,0,0,1-3.11,0Z" transform="translate(-228.88 -106.62)"/><path class="cls-1" d="M653.54,343.31a2.19,2.19,0,1,1,4.38,0v14.84A17,17,0,0,1,663.5,354a17.22,17.22,0,0,1,13.71-.17,17.11,17.11,0,0,1,5.4,3.63,17.47,17.47,0,0,1,3.64,5.41,16.62,16.62,0,0,1,1.34,6.64v15.12a2.08,2.08,0,0,1-.64,1.55,2.12,2.12,0,0,1-1.55.64,2.16,2.16,0,0,1-1.56-.64,2.11,2.11,0,0,1-.63-1.55V369.52a12.27,12.27,0,0,0-1-4.91,12.76,12.76,0,0,0-6.75-6.75,12.7,12.7,0,0,0-9.71,0,12.51,12.51,0,0,0-4,2.58,13,13,0,0,0-2.76,3.85,11.69,11.69,0,0,0-1.13,4.77v15.61a2.08,2.08,0,0,1-.64,1.55,2.2,2.2,0,0,1-3.1,0,2.08,2.08,0,0,1-.64-1.55V343.31Z" transform="translate(-228.88 -106.62)"/><path class="cls-1" d="M536.39,186.33v3.93a.47.47,0,0,0,.94,0v-3.93a.47.47,0,1,0-.94,0Z" transform="translate(-228.88 -106.62)"/><path class="cls-1" d="M536.86,184.92a1.27,1.27,0,1,0-1.26-1.26A1.26,1.26,0,0,0,536.86,184.92Z" transform="translate(-228.88 -106.62)"/><path class="cls-1" d="M539.49,197.72a1.26,1.26,0,1,0,1.78.07A1.24,1.24,0,0,0,539.49,197.72Z" transform="translate(-228.88 -106.62)"/><path class="cls-1" d="M537.69,200.37a1.25,1.25,0,0,0,.07-1.78,1.26,1.26,0,1,0-1.85,1.72A1.25,1.25,0,0,0,537.69,200.37Z" transform="translate(-228.88 -106.62)"/><circle class="cls-1" cx="301.75" cy="79.99" r="1.26"/><path class="cls-1" d="M533.42,185.7a1.27,1.27,0,0,0,0-2.53,1.27,1.27,0,1,0,0,2.53Z" transform="translate(-228.88 -106.62)"/><path class="cls-1" d="M479.14,213c.12.52.48,1.24.89,1.37a1.74,1.74,0,0,0,1.41-.75,18.74,18.74,0,0,0,2-3.59c.2-.54-.23-1.32-.34-1.85A4,4,0,0,0,479.14,213Z" transform="translate(-228.88 -106.62)"/><circle class="cls-1" cx="311.43" cy="77.81" r="1.26"/><path class="cls-1" d="M404.19,213.47c.12.52.48,1.24.89,1.37s1.13-.34,1.41-.75a18,18,0,0,0,2-3.6c.21-.54-.22-1.32-.33-1.84A4,4,0,0,0,404.19,213.47Z" transform="translate(-228.88 -106.62)"/><path class="cls-1" d="M513.31,187.59a8.76,8.76,0,0,0-2.93-5.42,10.58,10.58,0,0,0-4.42-2.26l-2.65-.69a89,89,0,0,0-11.68-2.32c-2.36-.31-4.72-.63-7.08-.92-3.41-.42-6.83-.71-10.25-1-2.19-.17-4.38-.33-6.58-.45-3-.18-6-.34-9.05-.46q-4.26-.18-8.52-.24c-3.2-.06-6.41-.06-9.62-.08-1,0-2,0-2.95,0s-1.74,0-2.61,0q-4.43.17-8.85.38c-1.42.07-2.84.16-4.25.27-2.33.19-4.66.37-7,.59-2.12.21-4.24.43-6.34.71-2.52.34-5,.73-7.53,1.13-2.81.43-5.57,1-8.31,1.72-1.66.41-3.31.89-4.95,1.34a9.15,9.15,0,0,0-7,7.06,12.71,12.71,0,0,0-.27,2.95v76.41a12.26,12.26,0,0,0,.34,2.76,8.84,8.84,0,0,0,3.65,5.24,10.92,10.92,0,0,0,4.11,1.71c.25.05.5.1.73.17a99,99,0,0,0,13.09,2.92c2.91.46,5.83.89,8.77,1.2,2.32.25,4.64.5,7,.7,2.14.18,4.29.33,6.43.45q4.43.25,8.85.44c1.56.06,3.12,0,4.67.06.8,0,1.61.06,2.41.06l5.63-.06c3.16,0,6.32-.1,9.48-.17,2-.05,3.93-.15,5.9-.24s4.07-.2,6.11-.3l2.6-.17,3.9-.31c1.78-.14,3.57-.26,5.34-.44,2.6-.26,5.19-.54,7.78-.86s5.4-.67,8.08-1.15a83.69,83.69,0,0,0,9.4-2.17c.24-.07.49-.12.73-.17a10.69,10.69,0,0,0,4.81-2.25,8.89,8.89,0,0,0,3.09-5.55,16.1,16.1,0,0,0,.16-2.77V190.36c0-.32,0-.65,0-1A18,18,0,0,0,513.31,187.59ZM410,222.74a8.53,8.53,0,0,1-8.38-8.37,8.25,8.25,0,0,1,8.32-8.31,8.06,8.06,0,0,1,8.28,8.25A8.27,8.27,0,0,1,410,222.74Zm20.26,46.7a95.66,95.66,0,0,0,34.08-.15C453,273.36,441.63,273.75,430.26,269.44Zm61-23.69a52.26,52.26,0,0,1-20.94,13.58c-16.84,6-33.64,6.05-50.31-1.17a42,42,0,0,1-17.24-13.4c-.4-.52-.76-1.09-1.14-1.64,13.7,10.78,28.48,13.78,43.91,12.72,11.47-.78,22.51-4.06,32.69-11.48a72.52,72.52,0,0,0,7.8-7.08c2.13-2.11,4.58-2.07,6.06.39A6.78,6.78,0,0,1,491.25,245.75Zm8.91-5.55c-.08-6.18-2.73-10.33-7.78-12.7a7.67,7.67,0,0,1,7.21,4.18A9.16,9.16,0,0,1,500.16,240.2ZM485,222.28a8.51,8.51,0,0,1-8.38-8.37,8.23,8.23,0,0,1,8.31-8.31,8.06,8.06,0,0,1,8.29,8.25A8.29,8.29,0,0,1,485,222.28Z" transform="translate(-228.88 -106.62)"/><path class="cls-1" d="M543,187.93a1.27,1.27,0,1,0-1.26-1.26A1.27,1.27,0,0,0,543,187.93Z" transform="translate(-228.88 -106.62)"/><path class="cls-1" d="M532.61,197.74a1.26,1.26,0,1,0,1.78.06A1.26,1.26,0,0,0,532.61,197.74Z" transform="translate(-228.88 -106.62)"/><path class="cls-1" d="M542.13,195.56a1.26,1.26,0,1,0,1.79.07A1.26,1.26,0,0,0,542.13,195.56Z" transform="translate(-228.88 -106.62)"/><path class="cls-1" d="M543.63,192.39a1.27,1.27,0,1,0,1.79.07A1.27,1.27,0,0,0,543.63,192.39Z" transform="translate(-228.88 -106.62)"/><path class="cls-1" d="M536.83,225.33a5.47,5.47,0,1,0,5.47,5.47A5.47,5.47,0,0,0,536.83,225.33Z" transform="translate(-228.88 -106.62)"/><path class="cls-1" d="M552.31,171.15c0-4.89-2.11-8.26-5.83-9.68h-2.84c-6-4.66-13.77-6.92-21.87-8.54-1.68-.34-3.38-.59-5.21-.91,7.19-14.9,14.3-29.62,21.41-44.33a3.49,3.49,0,0,0-1.22,1.27q-13.35,20.54-26.67,41.1a2.54,2.54,0,0,1-2.68,1.31,62.11,62.11,0,0,0-7.09,0,2.78,2.78,0,0,1-3-1.43c-6.27-9.77-12.61-19.52-18.93-29.27q-4.56-7-9.13-14l-.33.12q10.89,22.55,21.79,45.13c-4.09.91-8,1.62-11.75,2.63a44.53,44.53,0,0,0-15.35,7H369.82a9.26,9.26,0,0,0-5.67,8.9V286.43c0,6.2,3.78,10,10,10h11.08c.22.53.41,1,.63,1.46,1.84,3.86,5.1,5.59,9.17,5.71s7.77-1.42,9.71-5.4a2.69,2.69,0,0,1,2.87-1.8q51.53.06,103.05,0h2.05c1.37,5.5,4.6,8.48,9.35,8.77,6,.36,9.26-2.09,11.68-8.77H542c6.53,0,10.28-3.78,10.29-10.36,0-3.82,0-7.63,0-11.44Q552.31,222.89,552.31,171.15ZM521.84,284.34c0,.32,0,.65,0,1a4.62,4.62,0,0,1-4.33,4.36c-2.67.23-5.34.48-8,.7-2.05.17-4.11.31-6.16.45l-7.47.46c-.94.05-1.88.1-2.82.13-2.81.11-5.63.22-8.44.31-8.38.28-16.77.31-25.15.21-3.9-.05-7.79-.15-11.68-.26q-4.92-.15-9.82-.38c-3.27-.15-6.54-.33-9.81-.52-2.58-.15-5.17-.32-7.75-.51l-9-.72q-3.94-.33-7.87-.7c-2.73-.26-5.46-.55-8.19-.85s-5.65-.62-8.46-1-5.85-.78-8.78-1.17l-.75-.08a4.6,4.6,0,0,1-4.36-4.32c0-.26,0-.52,0-.78v-104c0-.23,0-.47,0-.71a4.59,4.59,0,0,1,4.23-4.3c.43,0,.86-.13,1.29-.22,3.14-.71,6.3-1.29,9.49-1.82q5.31-.89,10.66-1.52c2.93-.35,5.87-.67,8.8-1,2.74-.27,5.48-.49,8.21-.72,1.51-.12,3-.21,4.53-.31l5.55-.33c1-.06,2-.11,2.95-.14,2.95-.11,5.91-.22,8.86-.31,5.13-.15,10.26-.24,15.39-.2,4.63,0,9.25.11,13.88.21,3.16.06,6.32.18,9.48.3,2.67.11,5.35.23,8,.38q4.69.27,9.39.59c2.63.18,5.25.36,7.88.57s5.52.47,8.28.72l6.9.66c.43,0,.87.05,1.29.13a4.56,4.56,0,0,1,3.79,4.28c0,.32,0,.65,0,1V284.34Zm27.85-4a7.52,7.52,0,0,1-2.53,5.07,2.44,2.44,0,0,1-.69.37,48.9,48.9,0,0,1-5.73,1.42c-1.44.26-2.89.5-4.34.71-1,.14-2,.24-3,.31-1.46.09-2.91.16-4.37.21-.77,0-1.55,0-2.32-.06-.92-.05-1.61-.71-2.11-1.91a11.17,11.17,0,0,1-.69-3.13,20,20,0,0,1-.08-2v-101a26.28,26.28,0,0,1,.16-3.2,13.15,13.15,0,0,1,.53-2.48c.82-2.42,2.11-3.66,3.83-3.71a40.91,40.91,0,0,1,4.94.21c1.23.12,2.47.24,3.7.43a32.52,32.52,0,0,1,8.11,2.18c.52.22,1,.46,1.53.71a5,5,0,0,1,1.76,1.47,7.64,7.64,0,0,1,1.43,4,8.92,8.92,0,0,1,0,.9v96.89A17.42,17.42,0,0,1,549.69,280.35Z" transform="translate(-228.88 -106.62)"/><path class="cls-1" d="M543.67,188.78a1.26,1.26,0,1,0,1.79.07A1.27,1.27,0,0,0,543.67,188.78Z" transform="translate(-228.88 -106.62)"/><path class="cls-1" d="M536.83,253.06a5.47,5.47,0,1,0,5.47,5.47A5.47,5.47,0,0,0,536.83,253.06Z" transform="translate(-228.88 -106.62)"/><path class="cls-1" d="M536.83,239.19a5.48,5.48,0,1,0,5.47,5.48A5.47,5.47,0,0,0,536.83,239.19Z" transform="translate(-228.88 -106.62)"/><path class="cls-1" d="M531.6,195.63a1.26,1.26,0,1,0-.07,1.78A1.26,1.26,0,0,0,531.6,195.63Z" transform="translate(-228.88 -106.62)"/><path class="cls-1" d="M530.39,193.27a1.26,1.26,0,1,0-1.26,1.27A1.26,1.26,0,0,0,530.39,193.27Z" transform="translate(-228.88 -106.62)"/><path class="cls-1" d="M529.13,191a1.26,1.26,0,1,0-1.26-1.26A1.26,1.26,0,0,0,529.13,191Z" transform="translate(-228.88 -106.62)"/></svg>