<svg id="Layer_1" data-name="Layer 1" xmlns="http://www.w3.org/2000/svg" viewBox="0 0 188.16 198.59"><defs><style>.cls-1{fill:#ecefef;}</style></defs><path class="cls-1" d="M498.82,278.25v3.93a.47.47,0,1,0,.94,0v-3.93a.47.47,0,1,0-.94,0Z" transform="translate(-326.58 -198.54)"/><path class="cls-1" d="M499.29,276.84a1.27,1.27,0,1,0-1.26-1.26A1.27,1.27,0,0,0,499.29,276.84Z" transform="translate(-326.58 -198.54)"/><path class="cls-1" d="M501.92,289.64a1.26,1.26,0,1,0,1.78.06A1.26,1.26,0,0,0,501.92,289.64Z" transform="translate(-326.58 -198.54)"/><path class="cls-1" d="M500.13,292.29a1.26,1.26,0,1,0-1.79-.06A1.25,1.25,0,0,0,500.13,292.29Z" transform="translate(-326.58 -198.54)"/><circle class="cls-1" cx="166.48" cy="79.99" r="1.26"/><path class="cls-1" d="M495.85,277.62a1.27,1.27,0,1,0-1.26-1.26A1.26,1.26,0,0,0,495.85,277.62Z" transform="translate(-326.58 -198.54)"/><path class="cls-1" d="M441.57,304.93c.13.52.49,1.24.89,1.37a1.74,1.74,0,0,0,1.41-.75,17.7,17.7,0,0,0,2-3.59c.2-.54-.23-1.33-.34-1.85A4,4,0,0,0,441.57,304.93Z" transform="translate(-326.58 -198.54)"/><circle class="cls-1" cx="176.15" cy="77.81" r="1.26"/><path class="cls-1" d="M366.62,305.38c.12.53.48,1.25.89,1.38s1.13-.34,1.41-.75a18,18,0,0,0,2-3.6c.21-.54-.22-1.32-.33-1.84A4,4,0,0,0,366.62,305.38Z" transform="translate(-326.58 -198.54)"/><path class="cls-1" d="M475.75,279.51a8.82,8.82,0,0,0-2.94-5.42,10.58,10.58,0,0,0-4.42-2.26l-2.65-.69a89,89,0,0,0-11.68-2.32c-2.36-.31-4.72-.63-7.08-.92-3.4-.42-6.83-.71-10.25-1-2.19-.17-4.38-.33-6.58-.45-3-.18-6-.34-9-.46q-4.26-.18-8.52-.24c-3.2-.06-6.41-.06-9.61-.08-1,0-2,0-3,0s-1.74,0-2.61,0q-4.42.17-8.85.38c-1.42.07-2.84.16-4.25.27-2.33.18-4.66.37-7,.59-2.12.21-4.23.43-6.34.71-2.52.34-5,.73-7.53,1.12-2.8.44-5.57,1.05-8.31,1.73-1.66.41-3.31.88-4.95,1.34a9.16,9.16,0,0,0-7,7.06,12.71,12.71,0,0,0-.27,2.95v75.44c0,.33,0,.65,0,1a11.22,11.22,0,0,0,.34,2.76,8.79,8.79,0,0,0,3.64,5.24A11,11,0,0,0,351,368a6.11,6.11,0,0,1,.74.17,100.11,100.11,0,0,0,13.08,2.92c2.92.46,5.83.88,8.77,1.2,2.32.24,4.64.49,7,.7q3.21.27,6.44.45,4.41.26,8.84.44c1.56.06,3.12,0,4.68.06.8,0,1.6.06,2.4.06,1.88,0,3.75,0,5.63-.06,3.16-.05,6.32-.1,9.48-.18,2,0,3.94-.14,5.9-.23s4.07-.2,6.11-.3c.87-.05,1.74-.11,2.6-.18l3.91-.3c1.77-.14,3.56-.26,5.33-.44,2.6-.26,5.19-.54,7.78-.86s5.4-.67,8.08-1.15a85.94,85.94,0,0,0,9.4-2.17c.24-.07.49-.12.73-.17a10.64,10.64,0,0,0,4.81-2.25,8.89,8.89,0,0,0,3.09-5.55,16.1,16.1,0,0,0,.16-2.77V282.28c0-.32,0-.65,0-1C475.86,280.71,475.84,280.1,475.75,279.51ZM372.43,314.66a8.53,8.53,0,0,1-8.38-8.37,8.25,8.25,0,0,1,8.32-8.31,8.07,8.07,0,0,1,8.29,8.24A8.29,8.29,0,0,1,372.43,314.66Zm20.26,46.7a95.66,95.66,0,0,0,34.08-.15C415.43,365.28,404.07,365.67,392.69,361.36Zm61-23.69a52.36,52.36,0,0,1-20.94,13.58c-16.84,6-33.64,6.05-50.31-1.17a42,42,0,0,1-17.24-13.4c-.4-.52-.76-1.09-1.14-1.64,13.7,10.78,28.48,13.78,43.91,12.72,11.47-.78,22.51-4.06,32.69-11.48a71.59,71.59,0,0,0,7.8-7.09c2.13-2.1,4.59-2.07,6.06.4A6.76,6.76,0,0,1,453.68,337.67Zm8.91-5.55c-.08-6.18-2.73-10.33-7.78-12.7A7.7,7.7,0,0,1,462,323.6,9.19,9.19,0,0,1,462.59,332.12Zm-15.2-17.92a8.52,8.52,0,0,1-8.38-8.37,8.23,8.23,0,0,1,8.31-8.31,8.06,8.06,0,0,1,8.29,8.25A8.28,8.28,0,0,1,447.39,314.2Z" transform="translate(-326.58 -198.54)"/><path class="cls-1" d="M505.46,279.85a1.27,1.27,0,1,0-1.26-1.26A1.27,1.27,0,0,0,505.46,279.85Z" transform="translate(-326.58 -198.54)"/><path class="cls-1" d="M495,289.66a1.26,1.26,0,1,0,1.79.06A1.26,1.26,0,0,0,495,289.66Z" transform="translate(-326.58 -198.54)"/><path class="cls-1" d="M504.56,287.48a1.26,1.26,0,1,0,1.79.06A1.26,1.26,0,0,0,504.56,287.48Z" transform="translate(-326.58 -198.54)"/><path class="cls-1" d="M506.07,284.31a1.26,1.26,0,1,0,1.78.07A1.26,1.26,0,0,0,506.07,284.31Z" transform="translate(-326.58 -198.54)"/><path class="cls-1" d="M499.26,317.25a5.47,5.47,0,1,0,5.48,5.47A5.47,5.47,0,0,0,499.26,317.25Z" transform="translate(-326.58 -198.54)"/><path class="cls-1" d="M514.74,263.07c0-4.89-2.11-8.26-5.83-9.68h-2.84c-6-4.66-13.77-6.92-21.86-8.54-1.69-.34-3.39-.59-5.22-.91,7.2-14.9,14.3-29.62,21.41-44.33a3.58,3.58,0,0,0-1.22,1.27q-13.35,20.53-26.66,41.1a2.55,2.55,0,0,1-2.69,1.31,59.73,59.73,0,0,0-7.08,0,2.78,2.78,0,0,1-3-1.43q-9.4-14.66-18.93-29.27-4.56-7-9.13-14.05l-.33.11,21.8,45.14c-4.09.91-8,1.62-11.75,2.63a44.58,44.58,0,0,0-15.36,7H332.25a9.24,9.24,0,0,0-5.66,8.9q0,58,0,116.06c0,6.2,3.78,10,10,10h11.08c.23.53.41,1,.63,1.46,1.84,3.86,5.11,5.59,9.17,5.71s7.78-1.43,9.72-5.4a2.66,2.66,0,0,1,2.86-1.8q51.52.06,103.05,0h2c1.37,5.5,4.6,8.48,9.35,8.77,6,.36,9.27-2.09,11.68-8.77h8.27c6.53,0,10.28-3.79,10.29-10.37,0-3.81,0-7.62,0-11.43Q514.74,314.8,514.74,263.07ZM484.28,376.26c0,.32,0,.65,0,1a4.61,4.61,0,0,1-4.33,4.36c-2.67.23-5.33.48-8,.7-2.06.17-4.11.31-6.17.45l-7.47.46c-.94.05-1.88.1-2.82.13-2.81.11-5.63.22-8.44.31-8.38.28-16.77.31-25.15.21-3.9-.05-7.79-.15-11.68-.26-3.27-.1-6.55-.23-9.82-.38s-6.54-.33-9.81-.52c-2.58-.15-5.16-.33-7.74-.52q-4.53-.33-9-.71c-2.62-.22-5.25-.45-7.87-.7s-5.46-.55-8.19-.85-5.64-.62-8.46-1-5.85-.78-8.77-1.17l-.75-.08a4.6,4.6,0,0,1-4.37-4.32c0-.26,0-.52,0-.78v-104c0-.23,0-.47,0-.71a4.59,4.59,0,0,1,4.24-4.3c.43-.05.86-.13,1.28-.22,3.14-.71,6.31-1.3,9.49-1.82q5.31-.88,10.66-1.52,4.4-.53,8.81-1c2.73-.27,5.47-.49,8.2-.72,1.51-.12,3-.21,4.53-.31l5.55-.33c1-.06,2-.11,3-.15l8.86-.3c5.13-.16,10.26-.24,15.39-.2,4.63,0,9.26.11,13.88.21,3.16.06,6.32.18,9.48.3,2.68.1,5.35.23,8,.38q4.69.27,9.39.59c2.63.17,5.25.36,7.88.57s5.52.47,8.28.72c2.3.2,4.6.43,6.9.65.43.05.87.06,1.3.14a4.56,4.56,0,0,1,3.78,4.28c0,.32,0,.65,0,1V376.26Zm27.84-4a7.48,7.48,0,0,1-2.53,5.07,2.18,2.18,0,0,1-.69.36,49,49,0,0,1-5.73,1.43c-1.44.26-2.89.5-4.34.71-1,.14-2,.24-3,.3-1.46.1-2.91.17-4.37.22-.77,0-1.55,0-2.32-.06-.92-.05-1.61-.71-2.11-1.91a11.17,11.17,0,0,1-.69-3.13c-.06-.68-.08-1.36-.08-2.05V322.52q0-25.15,0-50.31a28.46,28.46,0,0,1,.16-3.2,13.42,13.42,0,0,1,.53-2.49c.82-2.41,2.11-3.65,3.83-3.7a38.88,38.88,0,0,1,4.94.21c1.23.12,2.47.24,3.7.43a32.6,32.6,0,0,1,8.12,2.18c.51.22,1,.46,1.52.71a5,5,0,0,1,1.76,1.47,7.64,7.64,0,0,1,1.44,4.05c0,.29,0,.6,0,.9v96.89A17.42,17.42,0,0,1,512.12,372.27Z" transform="translate(-326.58 -198.54)"/><path class="cls-1" d="M506.11,280.7a1.26,1.26,0,1,0,1.78.07A1.26,1.26,0,0,0,506.11,280.7Z" transform="translate(-326.58 -198.54)"/><path class="cls-1" d="M499.26,345a5.47,5.47,0,1,0,5.48,5.47A5.47,5.47,0,0,0,499.26,345Z" transform="translate(-326.58 -198.54)"/><path class="cls-1" d="M499.26,331.11a5.48,5.48,0,1,0,5.48,5.47A5.47,5.47,0,0,0,499.26,331.11Z" transform="translate(-326.58 -198.54)"/><path class="cls-1" d="M494,287.54a1.26,1.26,0,1,0-.07,1.79A1.26,1.26,0,0,0,494,287.54Z" transform="translate(-326.58 -198.54)"/><path class="cls-1" d="M492.83,285.19a1.27,1.27,0,1,0-1.27,1.27A1.26,1.26,0,0,0,492.83,285.19Z" transform="translate(-326.58 -198.54)"/><path class="cls-1" d="M491.57,283a1.26,1.26,0,1,0-1.27-1.26A1.26,1.26,0,0,0,491.57,283Z" transform="translate(-326.58 -198.54)"/></svg>
